<?xml version="1.0" encoding="utf-8"?>
<svg version="1.1" id="background_section-intro" xmlns="http://www.w3.org/2000/svg" xmlns:xlink="http://www.w3.org/1999/xlink" x="0px" y="0px" viewBox="0 0 360 240" style="enable-background:new 0 0 360 240;" xml:space="preserve">
<style type="text/css">
    .st6{opacity:1.00;fill:#DB1432;fill-opacity:1.00;filter:url(#graphFilter);}
    .st5{opacity:1.00;fill:#FA1744;fill-opacity:1.00;filter:url(#graphFilter);}
    .st4{opacity:1.00;fill:#FA3530;fill-opacity:1.00;filter:url(#graphFilter);}
    .st3{opacity:1.00;fill:#FF6C1F;fill-opacity:1.00;filter:url(#graphFilter);}
    .st2{opacity:1.00;fill:#FF871D;fill-opacity:1.00;filter:url(#graphFilter);}
    .st1{opacity:1.00;fill:#E0C61B;fill-opacity:1.00;filter:url(#graphFilter);}
    .st0{opacity:1.00;fill:#EDD11D;fill-opacity:1.00;display:none;}
</style>
<filter id="graphFilter" x0="-50%" y0="-50%" width="200%" height="200%">
    <!-- SHADOW -->
    <feGaussianBlur in="SourceAlpha" stdDeviation="2" result="blur"></feGaussianBlur>
    <feOffset dy="2" dx="2"></feOffset>
    <feComposite in2="SourceAlpha" operator="arithmetic" k2="-2" k3="1" result="shadowDiff"></feComposite>
    <feFlood flood-color="#000000" flood-opacity="0.60"></feFlood>
    <feComposite in2="shadowDiff" operator="in"></feComposite>
    <feComposite in2="SourceGraphic" operator="over" result="firstfilter"></feComposite>
    <!-- BEVEL -->
    <feGaussianBlur in="firstfilter" stdDeviation="0.4" result="blur2"></feGaussianBlur>
    <feOffset dy="0.4" dx="0.4"></feOffset>
    <feComposite in2="firstfilter" operator="arithmetic" k2="1" k3="-2" result="shadowDiff"></feComposite>
    <feFlood flood-color="#FFFFFF" flood-opacity="0.50"></feFlood>
    <feComposite in2="shadowDiff" operator="in"></feComposite>
    <feComposite in2="firstfilter" operator="over"></feComposite>
</filter>
<rect class="st0" x="-10" y="-10" width="380" height="260"/>
<path class="st1" d="M321.387,206.761c-8.325-1.993-6.802,13.816-16.015,11.199c-8.919-2.534,2.014-19.679,7.961-21.03
	c5.946-1.351,10.689,2.111,17.446,2.921c6.757,0.811,10,1.081,10,4.324C340.779,209.311,329.712,208.755,321.387,206.761z
	 M404.363,79.232c-5.542,14.723-5.807,25.109-19.182,35.469c-17.572,13.612-25.206,23.337-22.639,38.249
	c3.107,18.053,3.439,28.391-8.175,36.921c-9.188,6.748-29.598-5.565-41.698-3.186c-22.974,4.516-12.417,33.497-34.285,41.405
	c-17.531,6.34-28.623,3.402-38.605,2.733c-18.47-1.239-25.435,12.113-33.509,5.173c-7.565-6.503,2.631-24.904-10.805-40.052
	c-7.04-7.937-9.172-33.516,4.797-44.64c10.817-8.613,7.018-20.878,9.982-27.158c3.903-8.269,14.126-0.025,16.419-5.866
	c1.27-3.233-3.057-7.335-3.411-13.738c-0.328-5.932,3.32-14.136,4.195-18.21c3.029-14.111-12.201-15.489-9.081-1.115
	c2.143,9.869-6.512,11.386-10.22,24.237c-3.107,10.768-29.875,3.659-8.995-9.337c10.788-6.715,4.424-26.958,9.959-36.915
	c3.114-5.601,10.566-7.396,11.951-16.576c1.318-8.74,13.496-7.592,10.974,5.488c-1.575,8.168,2.797,15.192,11.714,4.133
	c8.509-10.553,10.482-44.839,38.824-46.553c18.416-1.114,27.403-12.253,47.608-5.592c18.651,6.149,36.166-8.196,52.137,2.498
	c12.514,8.379,18.384-0.385,22.785,4.595c3.345,3.786-2.973,11.813,0.837,20.103C411.555,43.509,411.632,59.921,404.363,79.232z
	 M194.431,121.907c5.924-2.765,9.148-2.273,7.505,10.511c-0.586,4.557-5.468,4.22-8.82,2.117
	C188.133,131.408,190.485,123.749,194.431,121.907z"/>
<path class="st2" d="M262.833,34.755c1.315-4.472,2.368-13.417,5.788-14.733c2.645-1.017,4.999,3.42,1.579,6.577
	c-3.42,3.157-1.842,16.311-5.788,17.627C260.465,45.542,261.518,39.228,262.833,34.755z M352.808,167.35
	c-3.946,0.789-3.157,9.734-7.892,8.156c-4.736-1.578,2.631-19.468,9.208-21.31C359.539,152.679,356.755,166.561,352.808,167.35z
	 M387.919,86.857c-14.093,18.906-12.657,24.222-32.216,37.084c-10.834,7.125-13.249,29.366-17.1,38.41
	c-5.886,13.82-24.401,8.242-40.339,16.592c-12.041,6.309-21.001,21.98-23.064,30.237c-2.894,11.581-13.154,0.789-29.202,9.925
	c-8.337,4.746-9.471-6.768-18.134-10.311c-5.19-2.122-19.421,1.742-21.189-15.871c-2.04-20.325-4.31-32.94,10.141-46.878
	c8.608-8.302,12.827-11.628,17.08-26.378c3.281-11.38-9.836-22.118,9.351-35.682c13.982-9.884,24.227-5.775,27.869-12.302
	c2.885-5.17-4.9-14.274-0.146-31.812c3.382-12.477,10.84-26.477,22.749-24.499c16.446,2.732,28.837-9.556,48.185-3.007
	c11.723,3.968,29.596-1.895,44.491,11.718c4.825,4.41,10.538,14.183,11.555,27.157C398.803,62.175,394.478,78.057,387.919,86.857z"
	/>
<path class="st3" d="M388.024,66.566c-6.008,21.888-11.527,26.473-22.805,34.223c-10.043,6.901,1.27,12.489-13.989,18.877
	c-7.817,3.272-12.365,29.794-18.679,29.026c-6.314-0.768-0.443-17.239,4.736-20.745c4.104-2.779,3.329-6.439,0.12-6.975
	c-6.97-1.164-12.661,12.527-12.485,21.121c0.317,15.4-0.44,16.98-16.24,21.728c-3.614,1.086-8.016,8.129-11.384,9.843
	c-5.384,2.738-12.999,1.711-17.058,6.141c-10.991,11.996-13.008,25.569-25.825,25.429c-5.281-0.058-5.603,4.12-13.943,1.967
	c-8.156-2.105-8.434-9.079-18.679-13.017c-18.178-6.988-8.349-29.507-4.209-37.884c6.698-13.556,15.765-9.699,16.048-18.679
	c0.746-23.622,14.47-21.206,10.787-39.463c-2.5-12.393,20.117-10.174,32.797-8.662c8.112,0.967,13.316-0.695,10.01-9.67
	c-5.763-15.645-11.607-25.019-9.595-38.761c1.361-9.294,7.189-16.952,17.152-20.226c12.479-4.1,25.404,3.393,46.759-2.225
	c14.738-3.877,13.727,6.265,28.632,5.354C391.348,22.675,392.927,48.702,388.024,66.566z"/>
<path class="st4" d="M380.154,69.768c-2.91,9.531-17.085,10.238-24.715,24.445c-8.978,16.717-19.109,17.125-25.822,21.994
	c-7.079,5.135-11.294,11.562-12.183,20.526c-0.691,6.969,1.471,15.107-6.642,18.964c-3.465,1.647-7.017,3.155-10.636,4.425
	c-11.977,4.201-18.835,8.577-27.491,18.69c-9.933,11.606-12.726,15.752-17.007,17.531c-4.927,2.048-3.514-3.471-9.663-1.369
	c-12.003,4.105-2.775-9.385-6.051-11.313c-5.622-3.308-19.348,1.409-19.85-9.011c-0.339-7.037,4.447-14.39,8.962-18.574
	c12.819-11.878,8.934-22.722,15.075-31.991c11.598-17.508,4.107-19.742,8.441-23.822c4.472-4.209,7.256,1.981,14.47,1.316
	c3.844-0.355,3.369-4.742,13.873-2.609c19.43,3.945,18.991-4.571,12.858-19.729c-3.874-9.575-13.097-23.05-11.58-36.736
	c1.969-17.775,19.501-11.055,30.414-14.324c20.206-6.053,32.219-1.822,39.336-1.693c10.582,0.191,20.435,4.18,18.228,12.741
	C365.219,58.433,384.17,56.614,380.154,69.768z"/>
<path class="st5" d="M370.698,61.064c-1.613,13.132-12.304,15.311-17.428,30.843c-4.127,12.509-18.37,13.361-28.583,21.751
	c-6.802,5.588-14.41,11.675-14.246,22.234c0.228,14.708-1.538,14.705-15.411,20.924c-6.888,3.088-16.703,3.794-22.943,14.601
	c-3.729,6.457-8.155,10.109-12.25,9.351c-5.685-1.052-11.683,7.366-14.63-0.526c-4.418-11.833-16.837-10.26-8.419-22.625
	c8.241-12.104,8.945-29.668,16.048-35.253c7.604-5.979,8.407-17.182,18.874-16.2c7.452,0.7,14.011,9.163,21.641,5.641
	c6.691-3.088,3.495,11.674,12.365,11.085c8.156-0.542,4.782-25.355-1.68-33.203c-2.423-2.943-3.038-9.288-9.437-20.151
	c-5.122-8.695,3.319-12.582-2.704-22.483c-6.121-10.062,10.105-17.706,21.45-13.347c13.062,5.018,38.781-6.636,45.164,2.255
	c8.769,12.214-13.782,1.37-15.172,12.214C342.022,58.433,371.69,52.984,370.698,61.064z"/>
<path class="st6" d="M356.228,75.533c-4.745-1.593,1.842-5.525,0-8.155c-1.841-2.631-5.525-2.368-4.209-6.051
	c1.315-3.683,4.591-1.889,6.314,0C360.872,64.11,360.146,76.849,356.228,75.533z M344.653,81.847
	c-9.583,6.486-8.687,8.608-15.189,18.889c-6.806,10.761-15.48,10.697-14.923,2.454c0.492-7.29,2.489-19.501-6.804-25.039
	c-6.486-3.865-5.756-14.301-6.973-21.56c-1.359-8.111,5.09-17.891,13.314-17.986c9.685-0.112,15.61,1.809,18.473,8.252
	c5.508,12.394-6.061,18.865,12.628,19.205C349.868,66.148,354.013,75.513,344.653,81.847z M293.944,151.535
	c-10.372,5.091-15.074,7.184-23.292,13.665c-9.397,7.411-10.976,12.41-16.764,10.492c-4.247-1.408,2.239-11.866-3.421-14.128
	c-6.996-2.796-1.14-5.477,0.264-16.31c0.404-3.123,5.579-15.544,13.154-19.472c7.103-3.683,11.249-18.682,16.574-12.504
	c11.5,13.342,15.785,3.559,18.762,13.165C302.926,138.393,306.647,145.3,293.944,151.535z"/>
</svg>
